

<svg width="150" height="41" viewBox="0 0 150 41" fill="none" xmlns="http://www.w3.org/2000/svg">
<path d="M2.418 10.416V3.164L7.234 10.416H8.998V0.182H7.234V7.434L2.432 0.182H0.654V10.416H2.418Z" fill="white"/>
<path d="M20.0414 5.292C20.0414 2.17 17.9974 0 15.0714 0C12.1454 0 10.1154 2.184 10.1154 5.292C10.1154 8.414 12.1314 10.584 15.0574 10.584C17.9974 10.584 20.0414 8.4 20.0414 5.292ZM18.1514 5.292C18.1514 7.448 16.9474 8.862 15.0714 8.862C13.1954 8.862 11.9914 7.476 11.9914 5.292C11.9914 3.108 13.1954 1.722 15.0714 1.722C16.9474 1.722 18.1514 3.108 18.1514 5.292Z" fill="white"/>
<path d="M21.0792 6.678C21.0792 9.086 22.6472 10.584 25.1252 10.584C27.6172 10.584 29.1852 9.072 29.1852 6.678V0.182H27.3932V6.566C27.3932 8.022 26.5812 8.848 25.1252 8.848C23.6692 8.848 22.8712 8.036 22.8712 6.566V0.182H21.0792V6.678Z" fill="white"/>
<path d="M32.6215 10.416V6.594H34.8195L36.5555 10.416H38.5155L36.5695 6.216C37.7735 5.726 38.4175 4.746 38.4175 3.374C38.4175 1.358 37.0595 0.182 34.7355 0.182H30.8295V10.416H32.6215ZM32.6215 1.778H34.7355C35.8695 1.778 36.5415 2.352 36.5415 3.374C36.5415 4.41 35.8695 5.012 34.7355 5.012H32.6215V1.778Z" fill="white"/>
<path d="M41.4404 0.182H39.6484V10.416H41.4404V0.182Z" fill="white"/>
<path d="M42.5609 3.038C42.5609 4.606 43.4709 5.6 45.2069 5.978L46.8309 6.342C47.6709 6.524 48.0209 6.93 48.0209 7.616C48.0209 8.47 47.2649 8.988 46.0749 8.988C44.9269 8.988 44.2269 8.47 44.2129 7.602H42.4209C42.4629 9.436 43.8909 10.598 46.0749 10.598C48.3289 10.598 49.8129 9.366 49.8129 7.462C49.8129 5.936 48.9589 5.04 47.2089 4.662L45.5989 4.312C44.7449 4.116 44.3529 3.71 44.3529 2.982C44.3529 2.128 45.0669 1.596 46.1729 1.596C47.1809 1.596 47.8109 2.114 47.8529 2.996H49.6449C49.5889 1.148 48.2729 0 46.2009 0C44.0449 0 42.5609 1.246 42.5609 3.038Z" fill="white"/>
<path d="M52.6661 10.416V6.076H57.2021V10.416H58.9941V0.182H57.2021V4.41H52.6661V0.182H50.8741V10.416H52.6661Z" fill="white"/>
<path d="M4.128 25.548C6.084 25.548 7.632 24.396 8.004 22.668H6.756C6.432 23.736 5.424 24.42 4.152 24.42C2.4 24.42 1.248 23.1 1.248 21.072C1.248 19.044 2.4 17.724 4.152 17.724C5.412 17.724 6.384 18.408 6.708 19.536H7.968C7.644 17.76 6.144 16.596 4.188 16.596C1.704 16.596 0.012 18.408 0.012 21.084C0.012 23.772 1.656 25.548 4.128 25.548Z" fill="white"/>
<path d="M12.614 19.5C12.386 19.452 12.218 19.428 12.014 19.428C11.21 19.428 10.622 19.836 10.382 20.448L10.31 19.56H9.25397V25.416H10.382V22.308C10.382 21.18 11.042 20.532 12.11 20.532H12.614V19.5Z" fill="white"/>
<path d="M15.993 25.56C17.445 25.56 18.429 24.852 18.717 23.592H17.661C17.469 24.264 16.893 24.624 16.017 24.624C14.901 24.624 14.253 23.94 14.169 22.704L18.705 22.692V22.272C18.705 20.532 17.613 19.38 15.945 19.38C14.241 19.38 13.077 20.652 13.077 22.488C13.077 24.312 14.265 25.56 15.993 25.56ZM15.945 20.328C16.941 20.328 17.577 20.976 17.577 21.948H14.193C14.337 20.916 14.961 20.328 15.945 20.328Z" fill="white"/>
<path d="M21.6223 25.56C22.5703 25.56 23.3743 25.14 23.6743 24.468L23.7943 25.416H24.7543V21.732C24.7543 20.148 23.7703 19.38 22.3183 19.38C20.8063 19.38 19.7983 20.184 19.7983 21.408H20.7823C20.7823 20.7 21.3223 20.28 22.2703 20.28C23.0623 20.28 23.6503 20.628 23.6503 21.612V21.78L21.8023 21.924C20.4223 22.032 19.6183 22.704 19.6183 23.784C19.6183 24.852 20.3623 25.56 21.6223 25.56ZM21.9463 24.684C21.2143 24.684 20.7583 24.372 20.7583 23.748C20.7583 23.172 21.1663 22.788 22.1623 22.692L23.6623 22.572V22.884C23.6623 23.988 23.0143 24.684 21.9463 24.684Z" fill="white"/>
<path d="M27.8787 25.416V20.496H29.0307V19.548H27.8787V17.712H26.7507V19.548H25.5987V20.496H26.7507V25.416H27.8787Z" fill="white"/>
<path d="M30.595 18.156C31.003 18.156 31.339 17.82 31.339 17.412C31.339 16.992 31.003 16.668 30.595 16.668C30.187 16.668 29.851 16.992 29.851 17.412C29.851 17.82 30.187 18.156 30.595 18.156ZM30.043 25.416H31.171V19.548H30.043V25.416Z" fill="white"/>
<path d="M34.4527 25.416H35.5687L38.0167 19.548H36.8407L35.5327 22.824C35.3287 23.34 35.1367 23.844 35.0407 24.228C34.9447 23.868 34.7767 23.376 34.5727 22.824L33.2887 19.548H32.0887L34.4527 25.416Z" fill="white"/>
<path d="M41.1766 25.56C42.6286 25.56 43.6126 24.852 43.9006 23.592H42.8446C42.6526 24.264 42.0766 24.624 41.2006 24.624C40.0846 24.624 39.4366 23.94 39.3526 22.704L43.8886 22.692V22.272C43.8886 20.532 42.7966 19.38 41.1286 19.38C39.4246 19.38 38.2606 20.652 38.2606 22.488C38.2606 24.312 39.4486 25.56 41.1766 25.56ZM41.1286 20.328C42.1246 20.328 42.7606 20.976 42.7606 21.948H39.3766C39.5206 20.916 40.1446 20.328 41.1286 20.328Z" fill="white"/>
<path d="M46.4772 24.948C46.4772 24.288 46.0692 23.868 45.5652 23.868C45.0852 23.868 44.7612 24.216 44.7612 24.696C44.7612 25.14 45.0972 25.428 45.4932 25.428C45.6372 25.428 45.7332 25.404 45.8172 25.356C45.8172 25.728 45.4692 26.052 44.9772 26.136V26.64C45.8292 26.532 46.4772 25.812 46.4772 24.948Z" fill="white"/>
<path d="M51.9349 25.416L52.7029 23.256H56.3509L57.1309 25.416H58.3669L55.1869 16.74H53.8789L50.7109 25.416H51.9349ZM54.3829 18.612C54.4429 18.432 54.5029 18.228 54.5269 18.108C54.5509 18.24 54.6109 18.444 54.6709 18.612L56.0029 22.236H53.0629L54.3829 18.612Z" fill="white"/>
<path d="M60.8787 25.416V20.496H62.0307V19.548H60.8787V17.712H59.7507V19.548H58.5987V20.496H59.7507V25.416H60.8787Z" fill="white"/>
<path d="M66.403 19.5C66.175 19.452 66.007 19.428 65.803 19.428C64.999 19.428 64.411 19.836 64.171 20.448L64.099 19.56H63.043V25.416H64.171V22.308C64.171 21.18 64.831 20.532 65.899 20.532H66.403V19.5Z" fill="white"/>
<path d="M68.9426 25.56C69.8906 25.56 70.6946 25.14 70.9946 24.468L71.1146 25.416H72.0746V21.732C72.0746 20.148 71.0906 19.38 69.6386 19.38C68.1266 19.38 67.1186 20.184 67.1186 21.408H68.1026C68.1026 20.7 68.6426 20.28 69.5906 20.28C70.3826 20.28 70.9706 20.628 70.9706 21.612V21.78L69.1226 21.924C67.7426 22.032 66.9386 22.704 66.9386 23.784C66.9386 24.852 67.6826 25.56 68.9426 25.56ZM69.2666 24.684C68.5346 24.684 68.0786 24.372 68.0786 23.748C68.0786 23.172 68.4866 22.788 69.4826 22.692L70.9826 22.572V22.884C70.9826 23.988 70.3346 24.684 69.2666 24.684Z" fill="white"/>
<path d="M73.2528 22.488C73.2528 24.336 74.3928 25.56 76.1208 25.56C77.5368 25.56 78.6288 24.708 78.8568 23.436H77.7288C77.5248 24.132 76.9248 24.552 76.1208 24.552C75.0528 24.552 74.3688 23.736 74.3688 22.476C74.3688 21.204 75.1008 20.388 76.1688 20.388C76.9248 20.388 77.5248 20.784 77.7168 21.528H78.8448C78.6408 20.22 77.6088 19.38 76.1328 19.38C74.4168 19.38 73.2528 20.652 73.2528 22.488Z" fill="white"/>
<path d="M81.7029 25.416V20.496H82.8549V19.548H81.7029V17.712H80.5749V19.548H79.4229V20.496H80.5749V25.416H81.7029Z" fill="white"/>
<path d="M84.4193 18.156C84.8272 18.156 85.1632 17.82 85.1632 17.412C85.1632 16.992 84.8272 16.668 84.4193 16.668C84.0113 16.668 83.6752 16.992 83.6752 17.412C83.6752 17.82 84.0113 18.156 84.4193 18.156ZM83.8672 25.416H84.9952V19.548H83.8672V25.416Z" fill="white"/>
<path d="M88.2769 25.416H89.3929L91.8409 19.548H90.6649L89.3569 22.824C89.1529 23.34 88.9609 23.844 88.8649 24.228C88.7689 23.868 88.6009 23.376 88.3969 22.824L87.1129 19.548H85.9129L88.2769 25.416Z" fill="white"/>
<path d="M95.0008 25.56C96.4528 25.56 97.4368 24.852 97.7248 23.592H96.6688C96.4768 24.264 95.9008 24.624 95.0248 24.624C93.9088 24.624 93.2608 23.94 93.1768 22.704L97.7128 22.692V22.272C97.7128 20.532 96.6208 19.38 94.9528 19.38C93.2488 19.38 92.0848 20.652 92.0848 22.488C92.0848 24.312 93.2728 25.56 95.0008 25.56ZM94.9528 20.328C95.9488 20.328 96.5848 20.976 96.5848 21.948H93.2008C93.3448 20.916 93.9688 20.328 94.9528 20.328Z" fill="white"/>
<path d="M100.301 24.948C100.301 24.288 99.8934 23.868 99.3894 23.868C98.9094 23.868 98.5854 24.216 98.5854 24.696C98.5854 25.14 98.9214 25.428 99.3174 25.428C99.4614 25.428 99.5574 25.404 99.6414 25.356C99.6414 25.728 99.2934 26.052 98.8014 26.136V26.64C99.6534 26.532 100.301 25.812 100.301 24.948Z" fill="white"/>
<path d="M109.856 16.74H108.68V25.416H109.856V16.74Z" fill="white"/>
<path d="M112.816 25.416V22.308C112.816 21.168 113.428 20.412 114.484 20.412C115.348 20.412 115.9 20.892 115.9 22.08V25.416H117.028V21.828C117.028 20.328 116.32 19.38 114.772 19.38C113.944 19.38 113.2 19.776 112.828 20.448L112.708 19.548H111.688V25.416H112.816Z" fill="white"/>
<path d="M120.246 25.416V20.496H121.398V19.548H120.246V17.712H119.118V19.548H117.966V20.496H119.118V25.416H120.246Z" fill="white"/>
<path d="M126.466 19.548V22.644C126.466 23.904 125.902 24.564 124.87 24.564C124.006 24.564 123.466 24.084 123.466 22.824V19.548H122.338V23.196C122.338 24.636 123.106 25.56 124.474 25.56C125.338 25.56 126.118 25.14 126.454 24.528L126.574 25.416H127.582V19.548H126.466Z" fill="white"/>
<path d="M129.771 18.156C130.179 18.156 130.515 17.82 130.515 17.412C130.515 16.992 130.179 16.668 129.771 16.668C129.363 16.668 129.027 16.992 129.027 17.412C129.027 17.82 129.363 18.156 129.771 18.156ZM129.219 25.416H130.347V19.548H129.219V25.416Z" fill="white"/>
<path d="M133.64 25.416V20.496H134.792V19.548H133.64V17.712H132.512V19.548H131.36V20.496H132.512V25.416H133.64Z" fill="white"/>
<path d="M136.357 18.156C136.765 18.156 137.101 17.82 137.101 17.412C137.101 16.992 136.765 16.668 136.357 16.668C135.949 16.668 135.613 16.992 135.613 17.412C135.613 17.82 135.949 18.156 136.357 18.156ZM135.805 25.416H136.933V19.548H135.805V25.416Z" fill="white"/>
<path d="M140.214 25.416H141.33L143.778 19.548H142.602L141.294 22.824C141.09 23.34 140.898 23.844 140.802 24.228C140.706 23.868 140.538 23.376 140.334 22.824L139.05 19.548H137.85L140.214 25.416Z" fill="white"/>
<path d="M146.938 25.56C148.39 25.56 149.374 24.852 149.662 23.592H148.606C148.414 24.264 147.838 24.624 146.962 24.624C145.846 24.624 145.198 23.94 145.114 22.704L149.65 22.692V22.272C149.65 20.532 148.558 19.38 146.89 19.38C145.186 19.38 144.022 20.652 144.022 22.488C144.022 24.312 145.21 25.56 146.938 25.56ZM146.89 20.328C147.886 20.328 148.522 20.976 148.522 21.948H145.138C145.282 20.916 145.906 20.328 146.89 20.328Z" fill="white"/>
<path d="M4.428 40.584C6.924 40.584 8.868 38.604 8.868 36.072C8.868 33.552 6.924 31.584 4.428 31.584C1.944 31.584 0 33.552 0 36.072C0 38.604 1.932 40.584 4.428 40.584ZM4.428 39.852C2.352 39.852 0.78 38.22 0.78 36.072C0.78 33.948 2.364 32.316 4.428 32.316C6.504 32.316 8.088 33.936 8.088 36.072C8.088 38.22 6.516 39.852 4.428 39.852ZM2.208 36.096C2.208 37.512 3.12 38.472 4.476 38.472C5.568 38.472 6.42 37.812 6.588 36.828H5.676C5.52 37.368 5.1 37.668 4.476 37.668C3.66 37.668 3.108 37.032 3.108 36.084C3.108 35.148 3.684 34.5 4.512 34.5C5.124 34.5 5.52 34.788 5.664 35.34H6.588C6.42 34.32 5.616 33.684 4.488 33.684C3.156 33.684 2.208 34.68 2.208 36.096Z" fill="white"/>
<path d="M15.76 40.404V39.312H11.752L13.552 37.752C15.088 36.42 15.7 35.544 15.7 34.308C15.7 32.64 14.584 31.584 12.844 31.584C11.08 31.584 9.90403 32.796 9.86803 34.656H11.044C11.068 33.42 11.764 32.64 12.832 32.64C13.876 32.64 14.5 33.288 14.5 34.38C14.5 35.304 14.104 35.892 12.7 37.104L9.90403 39.516V40.416L15.76 40.404Z" fill="white"/>
<path d="M16.8424 36.084C16.8424 38.784 18.1744 40.572 20.4184 40.572C22.6504 40.572 23.9824 38.784 23.9824 36.084C23.9824 33.396 22.5904 31.572 20.4184 31.572C18.2344 31.572 16.8424 33.396 16.8424 36.084ZM18.0064 36.084C18.0064 33.924 18.8944 32.628 20.4184 32.628C21.9424 32.628 22.8184 33.924 22.8184 36.084C22.8184 38.22 21.9424 39.516 20.4184 39.516C18.8944 39.516 18.0064 38.22 18.0064 36.084Z" fill="white"/>
<path d="M30.9827 40.404V39.312H26.9747L28.7747 37.752C30.3107 36.42 30.9227 35.544 30.9227 34.308C30.9227 32.64 29.8067 31.584 28.0667 31.584C26.3027 31.584 25.1267 32.796 25.0907 34.656H26.2667C26.2907 33.42 26.9867 32.64 28.0547 32.64C29.0987 32.64 29.7227 33.288 29.7227 34.38C29.7227 35.304 29.3267 35.892 27.9227 37.104L25.1267 39.516V40.416L30.9827 40.404Z" fill="white"/>
<path d="M37.9319 40.404V39.312H33.9239L35.7239 37.752C37.2599 36.42 37.8719 35.544 37.8719 34.308C37.8719 32.64 36.7559 31.584 35.0159 31.584C33.2519 31.584 32.0759 32.796 32.0399 34.656H33.2159C33.2399 33.42 33.9359 32.64 35.0039 32.64C36.0479 32.64 36.6719 33.288 36.6719 34.38C36.6719 35.304 36.2759 35.892 34.8719 37.104L32.0759 39.516V40.416L37.9319 40.404Z" fill="white"/>
</svg>
